<svg xmlns="http://www.w3.org/2000/svg" viewBox="0 0 96 96" role="img" aria-label="Character placeholder">
  <defs>
    <linearGradient id="bg" x1="14" y1="10" x2="82" y2="88" gradientUnits="userSpaceOnUse">
      <stop stop-color="#242d38"/>
      <stop offset="1" stop-color="#0f151b"/>
    </linearGradient>
    <linearGradient id="cyan" x1="20" y1="15" x2="76" y2="81" gradientUnits="userSpaceOnUse">
      <stop stop-color="#78efff"/>
      <stop offset="1" stop-color="#338da4"/>
    </linearGradient>
  </defs>
  <path d="M48 7 82 25v42L48 89 14 67V25L48 7Z" fill="url(#bg)" stroke="#3a4653" stroke-width="3"/>
  <path d="M48 17c18 0 25 13 23 31-2 19-14 29-23 29S27 67 25 48c-2-18 5-31 23-31Z" fill="#e7e2d7"/>
  <path d="M48 22 56 45 48 39 40 45 48 22Z" fill="#b83732"/>
  <path d="M31 41c8-9 17-6 18 0-4 9-12 13-20 8 0-3 1-6 2-8Zm34 0c-8-9-17-6-18 0 4 9 12 13 20 8 0-3-1-6-2-8Z" fill="#11171d"/>
  <path d="M35 45c4 0 8 1 11 4M61 45c-4 0-8 1-11 4" stroke="#c23b35" stroke-width="4" stroke-linecap="round"/>
  <path d="M37 61c7 5 15 5 22 0" fill="none" stroke="#11171d" stroke-width="5" stroke-linecap="round"/>
  <path d="M19 49c1-12 7-22 17-28M77 49c-1-12-7-22-17-28" fill="none" stroke="url(#cyan)" stroke-width="4" stroke-linecap="round"/>
</svg>
