<svg xmlns="http://www.w3.org/2000/svg" viewBox="0 0 96 96" role="img" aria-label="Server placeholder">
  <defs>
    <linearGradient id="bg" x1="16" y1="10" x2="80" y2="88" gradientUnits="userSpaceOnUse">
      <stop stop-color="#222b35"/>
      <stop offset="1" stop-color="#0d1318"/>
    </linearGradient>
    <linearGradient id="cyan" x1="18" y1="19" x2="78" y2="77" gradientUnits="userSpaceOnUse">
      <stop stop-color="#74e7ff"/>
      <stop offset="1" stop-color="#2f8ea5"/>
    </linearGradient>
  </defs>
  <rect x="7" y="7" width="82" height="82" rx="25" fill="url(#bg)" stroke="#2b3e48" stroke-width="3"/>
  <path d="M27 28h42a6 6 0 0 1 6 6v6a6 6 0 0 1-6 6H27a6 6 0 0 1-6-6v-6a6 6 0 0 1 6-6Z" fill="#151c23" stroke="#384753" stroke-width="2"/>
  <path d="M27 51h42a6 6 0 0 1 6 6v6a6 6 0 0 1-6 6H27a6 6 0 0 1-6-6v-6a6 6 0 0 1 6-6Z" fill="#151c23" stroke="#384753" stroke-width="2"/>
  <circle cx="33" cy="37" r="4" fill="url(#cyan)"/>
  <circle cx="33" cy="60" r="4" fill="#b83a35"/>
  <path d="M45 37h19M45 60h19" stroke="#8fa5b4" stroke-width="4" stroke-linecap="round"/>
  <path d="M18 48a30 30 0 0 1 60 0" fill="none" stroke="url(#cyan)" stroke-width="4" stroke-linecap="round" opacity=".8"/>
</svg>
